<svg height="512" viewBox="0 0 57 56" width="512" xmlns="http://www.w3.org/2000/svg"><g id="029---Koi-Carp" transform="translate(0 -1)"><path id="Shape" d="m33.29 53.71c-1.0661183-1.1869767-2.5573242-1.9056301-4.15-2-2.1946898.8103946-4.4393455 1.4784469-6.72 2 1.7 3.29 4.01 3.29 8.58 3.29 1.6800797.0466841 3.3594862-.1145389 5-.48-.8495564-.9870799-1.7543387-1.925249-2.71-2.81z"/><path id="Shape" d="m10.32 51.58c-.45388775.0558341-.85801875.3143562-1.09899302.7030243-.24097426.3886682-.29282654.8656031-.14100698 1.2969757.9 0 1.86-.06 2.88-.18.1173705-.4764838-.00907-.9801621-.3375701-1.344717-.3285001-.364555-.8163393-.5425774-1.3024299-.475283z"/><path id="Shape" d="m5.5 44c.65534502.000636 1.23523952-.4242414 1.43214619-1.0493056s-.03476271-1.3055991-.57214619-1.6806944c-.76.62-1.49 1.28-2.17 1.95.26050549.480637.76330537.780014 1.31.78z"/><path id="Shape" d="m16.55 38.11c4.34-2.17 6.51.15 10.13-1.06 1.47-.49 2.95-1.44 2.64-3-3.6806472.1376567-7.3385597.6401172-10.92 1.5-1.5366578.8511337-3.2460272 1.3434321-5 1.44-.28.09-.56.21-.86.33 1.1017165.9563798 2.6278589 1.2570413 4.01.79z"/><path id="Shape" d="m31.2 46.63c-1.2-.75-3.17.46-4.4 1.15-1.68.95-3 1.7-5 1.19-.7881363-.2831174-1.6638558-.1755078-2.36.29-.8521035.880163-1.3320542 2.0549677-1.34 3.28 4.8008507-.7485537 9.4772423-2.1481069 13.9-4.16.0116676-.6742913-.282436-1.3176431-.8-1.75z"/><path id="Shape" d="m40.6 25.9999508-2.85.0000492c-.501932-.0049401-.9297504.3629837-1 .86l-.64 5.06c1.0477964-.1676895 2.0611492-.5054737 3-1z"/><path id="Shape" d="m17.73 33.65c1.87-1.1 3.27-2.77 3.27-4.65v-6c-1.76.72-4.94 2.66-6.16 4.54-1 1.57-1.17 4.57-1 7.19 1.37-.42 2.65-.73 3.89-1.08z"/><path id="Shape" d="m51.77 10.9c-4.19-2.4-5.3-3.16-7.5-9-.13-.35-.25-.67-.36-.93-3.56 7.1-2.37 11 .89 15.31s3.25 6.57 2.15 9.87c-.0644274.2171075-.0848266.4448996-.06.67 0 0 .11.09.39.13.1424903.0219843.2875097.0219843.43 0 .5527105-.0685524 1.0683988-.3141182 1.47-.7 4.33-4.25 6.82-8.02 6.82-10.25 0-2.56-1.37-3.46-4.23-5.1z"/><path id="Shape" d="m51.05 8.15c1.7570491.91454622 3.4301744 1.9820002 5 3.19v-10.34c-1.93 1.51-4.61 4.87-5 7.15z"/><path id="Shape" d="m47.31 36c-.37.8-.79 1.63-1.27 2.46l5.96-1.29-.72-3.52z"/><path id="Shape" d="m39.85 38.58c-1.31 2-1.15 3.24-1 5.42 1.5588575-1.2868293 2.9527499-2.7613323 4.15-4.39.0587839-.1323857.1438353-.2514577.25-.35.4928087-.7081836.94681-1.4425975 1.36-2.2-2.86.2-4.35.94-4.76 1.52z"/><path id="Shape" d="m47.65 29c-.7588054.0443364-1.5070795-.1943986-2.1-.67-2.4 2.9-6.17 5.67-10.48 5.67-1.21 0-2.45 0-3.74 0 .3 2.47-1.63 4.12-4 4.92-4 1.34-6.32-.83-9.87.94-2.3819928.9410748-5.0981826.2939825-6.8-1.62-.91734842.5389231-1.80527809 1.1264255-2.66 1.76.9526733.9037598 1.31931197 2.2647385.94954565 3.5247547-.36976633 1.2600163-1.41371545 2.2070417-2.70369011 2.4526706-1.28997465.2456288-2.60890518-.251472-3.41585554-1.2874253-1.91 2.2-3.1 4.42-2.73 6s2.87 2.67 7 2.79c-.1049341-1.9329966 1.37700338-3.5850659 3.31-3.69 1.9329966-.1049341 3.5850659 1.3770034 3.69 3.31 1.53-.19 1.12-.15 2-.28.25-4.06 2.3-6.81 6.21-5.83 1.72.43 2.57-.56 5.31-1.92s5.65-.79 6.31 2.32c1.078302-.6049368 2.1201-1.272756 3.12-2-.09-2.9-.87-4.89 1.21-8 1-1.51 3.63-2.36 7.4-2.45.7963602-1.9329203 1.4612077-3.91744 1.99-5.94zm-13.14 11.86c-5.2 3.12-9.29 1.14-18.1 5-.3290986.1734267-.7272641.1498414-1.0335872-.0612245-.3063232-.2110659-.4701688-.5747233-.4253225-.9440084s.2909715-.6831553.6389097-.8147671c9.05-4 13.2-2.13 17.9-5 .3087061-.2245083.7182934-.2536931 1.0557132-.0752238.3374198.1784692.5438087.5334581.5319684.9149856-.0118404.3815274-.2398445.7230353-.5876816.8802382z"/></g></svg>