<?xml version="1.0" encoding="iso-8859-1"?>
<!-- Generator: Adobe Illustrator 19.0.0, SVG Export Plug-In . SVG Version: 6.00 Build 0)  -->
<svg version="1.1" id="Capa_1" xmlns="http://www.w3.org/2000/svg" xmlns:xlink="http://www.w3.org/1999/xlink" x="0px" y="0px"
	 viewBox="0 0 512 512" style="enable-background:new 0 0 512 512;" xml:space="preserve">
<g>
	<g>
		<path d="M256,74.667c-124.096,0-256,33.643-256,96c0,113.515,91.819,200.661,172.267,242.048
			c11.072,23.872,75.755,24.619,83.733,24.619s72.661-0.747,83.733-24.619C420.181,371.264,512,284.096,512,170.667
			C512,108.309,380.096,74.667,256,74.667z M256,245.333c-138.283,0-234.667-39.36-234.667-74.667C21.333,135.36,117.717,96,256,96
			s234.667,39.36,234.667,74.667C490.667,205.973,394.283,245.333,256,245.333z"/>
	</g>
</g>
<g>
	<g>
		<path d="M256,160c-88.768,0-162.517,15.019-178.155,34.837C111.829,209.28,170.603,224,256,224
			c85.355,0,144.128-14.699,178.091-29.227C418.325,174.976,344.661,160,256,160z"/>
	</g>
</g>
<g>
</g>
<g>
</g>
<g>
</g>
<g>
</g>
<g>
</g>
<g>
</g>
<g>
</g>
<g>
</g>
<g>
</g>
<g>
</g>
<g>
</g>
<g>
</g>
<g>
</g>
<g>
</g>
<g>
</g>
</svg>
